<?xml version="1.0" standalone="no"?>
<!DOCTYPE svg PUBLIC "-//W3C//DTD SVG 20010904//EN"
 "http://www.w3.org/TR/2001/REC-SVG-20010904/DTD/svg10.dtd">
<svg version="1.0" xmlns="http://www.w3.org/2000/svg" width="512.000000pt" height="512.000000pt" viewBox="0 0 512.000000 512.000000" preserveAspectRatio="xMidYMid meet">
<metadata>
Created by potrace 1.14, written by Peter Selinger 2001-2017
</metadata>
<g transform="translate(0.000000,512.000000) scale(0.100000,-0.100000)" fill="#000000" stroke="none">
<path d="M320 5113 c-94 -18 -211 -104 -264 -195 -59 -102 -56 45 -53 -2383
l2 -2230 33 -68 c36 -74 110 -155 169 -185 108 -55 -43 -52 2354 -52 2137 0
2209 1 2268 19 123 38 216 123 263 239 l23 57 0 2250 0 2250 -34 69 c-43 89
-113 159 -199 199 l-67 32 -2235 1 c-1229 1 -2246 -1 -2260 -3z m1755 -1213
c7 -5 10 -180 9 -534 0 -364 3 -526 10 -527 15 -1 918 -1 934 0 9 1 12 115 12
535 l0 535 323 -2 322 -2 0 -1345 0 -1345 -322 -2 -323 -2 0 564 0 563 -477
-2 -478 -1 -1 -560 0 -560 -305 -2 c-167 -2 -313 -1 -325 2 l-20 4 1 1343 c1
739 3 1344 3 1345 7 6 628 0 637 -7z"></path>
</g>
</svg>
